<svg id="Layer_1" data-name="Layer 1" xmlns="http://www.w3.org/2000/svg" viewBox="0 0 128 128"><title>LAPTOP</title><path d="M122.25,90.491H120V24.835a6.758,6.758,0,0,0-6.75-6.75H14.75A6.758,6.758,0,0,0,8,24.835V90.491H5.75A5.756,5.756,0,0,0,0,96.241v7.923a5.756,5.756,0,0,0,5.75,5.75h116.5a5.756,5.756,0,0,0,5.75-5.75V96.241A5.756,5.756,0,0,0,122.25,90.491ZM11.5,24.835a3.254,3.254,0,0,1,3.25-3.25h98.5a3.254,3.254,0,0,1,3.25,3.25V90.491H11.5ZM82.139,93.991l-1.682,4.461H47.543l-1.682-4.461ZM124.5,104.165a2.253,2.253,0,0,1-2.25,2.25H5.75a2.253,2.253,0,0,1-2.25-2.25V96.241a2.253,2.253,0,0,1,2.25-2.25H42.12L44.7,100.82a1.75,1.75,0,0,0,1.638,1.133H81.667A1.75,1.75,0,0,0,83.3,100.82l2.575-6.829h36.37a2.253,2.253,0,0,1,2.25,2.25Z"/><path d="M110,82.241V29.835a1.75,1.75,0,0,0-1.75-1.75H19.75A1.75,1.75,0,0,0,18,29.835V82.241a1.75,1.75,0,0,0,1.75,1.75h88.5A1.75,1.75,0,0,0,110,82.241Zm-3.5-1.75h-85V31.585h85Z"/></svg>